<svg width="21" height="21" viewBox="0 0 21 21" fill="none" xmlns="http://www.w3.org/2000/svg">
    <path d="M17.2417 12.7008C17.6492 12.5208 18.135 12.8658 17.965 13.2708C16.805 16.0458 14.0217 18 10.7717 18C6.47917 18 3 14.5908 3 10.385C3 6.84422 5.46667 3.86755 8.8075 3.01505C9.24083 2.90505 9.525 3.42172 9.28833 3.79505C8.66988 4.76919 8.34206 5.89951 8.34333 7.05339C8.34333 10.4709 11.17 13.2408 14.6575 13.2408C15.547 13.2423 16.4271 13.0584 17.2417 12.7008ZM12.835 3.75921C12.5408 3.31755 13.0675 2.79088 13.5092 3.08588L14.2967 3.61088C14.616 3.82385 14.9912 3.93751 15.375 3.93751C15.7588 3.93751 16.134 3.82385 16.4533 3.61088L17.24 3.08588C17.6825 2.79088 18.2092 3.31755 17.9142 3.75921L17.3892 4.54671C17.1762 4.86602 17.0625 5.24123 17.0625 5.62505C17.0625 6.00886 17.1762 6.38408 17.3892 6.70338L17.9142 7.49088C18.2092 7.93255 17.6825 8.45921 17.2408 8.16421L16.4533 7.63921C16.134 7.42624 15.7588 7.31259 15.375 7.31259C14.9912 7.31259 14.616 7.42624 14.2967 7.63921L13.51 8.16421C13.0683 8.45921 12.5408 7.93255 12.835 7.49088L13.36 6.70338C13.573 6.38408 13.6866 6.00886 13.6866 5.62505C13.6866 5.24123 13.573 4.86602 13.36 4.54671L12.835 3.75921Z"
          fill="#828FA3"/>
</svg>
