<svg xmlns="http://www.w3.org/2000/svg" xmlns:xlink="http://www.w3.org/1999/xlink" width="64" height="64">
    <defs>
        <path id="a" d="M.06 64V.04H64V64z"/>
    </defs>
    <g fill="none" fill-rule="evenodd">
        <mask id="b" fill="#fff">
            <use xlink:href="#a"/>
        </mask>
        <path fill="#4C5665"
              d="M64 32c0 17.673-14.327 32-32 32C14.327 64 0 49.673 0 32 0 14.327 14.327 0 32 0c17.673 0 32 14.327 32 32"
              mask="url(#b)"/>
        <path fill="#414A55"
              d="M26.796 53.695c-.931 0-1.233-.661-.787-1.472l.259-.621c.144.061.32.093.528.093.456.001 1.062-.158 1.806-.536l8.132-4.435c3.795-2.109 4.938-2.869 5.139-6.256l.031.228c.058 4.957-.789 5.593-5.17 8.028l-8.132 4.435c-.744.378-1.35.537-1.806.536M13.844 40.948c-.702 0-1.07-.778-.518-2.199a.716.716 0 0 0 .518.199c.205 0 .44-.067.687-.203 0 0 5.382-2.22 9.145-4.085a31.61 31.61 0 0 0-.048.708c-.122.15-.243.3-.363.452a16.118 16.118 0 0 0-2.019 1.725c-.16.16-.318.323-.476.49-3.139 1.432-6.239 2.71-6.239 2.71-.247.136-.482.203-.687.203"/>
        <path fill="#B85756"
              d="M32.096 37.682c-1.555 1.556-6.087 12.541-6.087 12.541-.664 1.208.331 2.085 2.593.936l8.132-4.435c4.381-2.435 5.228-3.071 5.17-8.028l-.815-5.853c-.279-2.005-1.78-2.373-3.336-.817l-5.657 5.656M27.072 32.658c-1.556 1.556-12.541 6.087-12.541 6.087-1.208.665-2.085-.33-.936-2.593l4.435-8.132c2.435-4.38 3.071-5.228 8.029-5.17l5.853.815c2.005.279 2.372 1.781.817 3.336l-5.657 5.657"/>
        <path fill="#414A55"
              d="M13.399 53.548c-.131 0-.223-.023-.272-.072-.166-.166-.025-.879.369-1.932 1.779-.129 8.962-3.588 13.562-8.188.113-.113.223-.226.33-.338l.243.001c.438 0 .905-.01 1.395-.034a15.652 15.652 0 0 1-1.968 2.371c-4.689 4.689-12.061 8.192-13.659 8.192"/>
        <path fill="#D5915B"
              d="M21.246 37.545c5.075-5.074 9.338-3.526 9.338-3.526s1.548 4.263-3.526 9.337c-5.074 5.075-13.291 8.76-13.931 8.12-.62-.621 3.045-8.857 8.119-13.931"/>
        <path fill="#F0CB83"
              d="M25.489 33.302c5.074-5.074 9.337-3.525 9.337-3.525s1.549 4.262-3.525 9.337c-5.075 5.074-13.291 8.759-13.931 8.119-.621-.62 3.045-8.857 8.119-13.931"/>
        <path fill="#414A55"
              d="M29.026 42.985c.487-.728.847-1.424 1.111-2.074a.625.625 0 0 1 .043-.004c-.325.65-.661 1.352-.996 2.07l-.158.008m12.867-4.373-.252-1.809a18.287 18.287 0 0 0 1.993-1.725c5.348-5.348 7.402-12.605 7.681-17.132.309 4.077-1.449 12.9-7.681 19.132a18.331 18.331 0 0 1-1.741 1.534"/>
        <path fill="#974D4C"
              d="M29.184 42.977c.335-.718.671-1.42.996-2.07 3.434-.304 7.729-1.316 11.461-4.104l.252 1.809c-4.157 3.217-9.064 4.171-12.709 4.365"/>
        <path fill="#3A4048"
              d="m27.631 43.019-.243-.001a15.588 15.588 0 0 0 1.391-1.676c.154-.121.306-.244.457-.368.293-.016.594-.037.901-.063-.264.65-.624 1.346-1.111 2.074-.49.024-.957.034-1.395.034"/>
        <path fill="#AE7A51"
              d="M27.388 43.018c-.307-.003-.598-.01-.872-.021a37.432 37.432 0 0 0 2.263-1.655 15.588 15.588 0 0 1-1.391 1.676"/>
        <path fill="#C1A56E"
              d="M26.516 42.997a16.536 16.536 0 0 1-.335-.015l2.551-1.984c.165-.006.334-.014.504-.024a37.432 37.432 0 0 1-2.72 2.023m-2.896-2.575a29.032 29.032 0 0 1-.019-2.452c.035.997.114 1.776.174 2.253l-.155.199"/>
        <path fill="#DEDECA"
              d="M43.634 35.078c-7.81 7.811-19.783 5.673-19.783 5.673s-2.137-11.972 5.674-19.782c7.81-7.811 19.643-8.642 21.197-7.088 1.506 1.507.723 13.387-7.088 21.197"/>
        <path fill="#AE7A51"
              d="M19.572 48.041c-.211 0-.43-.1-.67-.34-.205-.205-.308-.394-.333-.577 1.324-.396 3.561-1.419 5.974-2.868l-3.52 2.738c-.541.541-.976 1.047-1.451 1.047"/>
        <path fill="#C1A56E"
              d="M18.569 47.124c-.072-.513.464-.968 1.04-1.544l4.011-5.158c.074 1.445.231 2.329.231 2.329s.884.158 2.33.231l-1.638 1.274c-2.413 1.449-4.65 2.472-5.974 2.868"/>
        <path fill="#9F895E"
              d="M26.181 42.982c-1.446-.073-2.33-.231-2.33-.231s-.157-.884-.231-2.329l.155-.199c.043.342.076.528.076.528s1.498.268 3.78.268c.349 0 .717-.007 1.101-.021l-2.551 1.984"/>
        <path fill="#B3B2A4"
              d="M27.631 41.019c-2.282 0-3.78-.268-3.78-.268s-.033-.186-.076-.528l5.733-7.371c.541-.541 2.333-1.047 3.643-1.047.581 0 1.067.1 1.307.34.781.781.074 4.168-.707 4.949l-5.019 3.904c-.384.014-.752.021-1.101.021"/>
        <path fill="#B85756"
              d="M21.023 44.994c-.781.781-1.34 1.488-2.121.707-.781-.781-.074-1.34.707-2.121l9.899-12.728c.781-.781 4.169-1.488 4.95-.707.781.781.074 4.169-.707 4.95l-12.728 9.899"/>
        <path fill="#B3B2A4"
              d="M39.604 31.15a4 4 0 1 1 .002-8.001 4 4 0 0 1-.002 8.001M45.261 23.493a2 2 0 1 1 0-4 2 2 0 0 1 0 4"/>
        <path fill="#4C5665"
              d="M42.433 27.978a4 4 0 1 1-5.657-5.658 4 4 0 0 1 5.657 5.658M46.675 20.907a2 2 0 1 1-2.828-2.828 2 2 0 0 1 2.828 2.828"/>
    </g>
</svg>