<svg width="20" height="20" viewBox="0 0 20 20" fill="none" xmlns="http://www.w3.org/2000/svg">
    <path d="M10.7559 1.24408C10.5997 1.0878 10.3877 1 10.1667 1C9.94566 1 9.73369 1.0878 9.57741 1.24408C9.42113 1.40036 9.33334 1.61232 9.33334 1.83333V2.66666C9.33334 2.88768 9.42113 3.09964 9.57741 3.25592C9.73369 3.4122 9.94566 3.5 10.1667 3.5C10.3877 3.5 10.5997 3.4122 10.7559 3.25592C10.9122 3.09964 11 2.88768 11 2.66666V1.83333C11 1.61232 10.9122 1.40036 10.7559 1.24408ZM3.5 2.66684C3.27903 2.66684 3.06711 2.75461 2.91084 2.91083C2.75461 3.0671 2.66685 3.27903 2.66685 3.5C2.66685 3.72097 2.75461 3.93289 2.91084 4.08916L4.16084 5.33916C4.318 5.49096 4.52851 5.57496 4.747 5.57306C4.9655 5.57116 5.17451 5.48352 5.32902 5.32901C5.48352 5.17451 5.57117 4.9655 5.57306 4.747C5.57496 4.5285 5.49097 4.318 5.33917 4.16083L4.08917 2.91083C3.9329 2.75461 3.72097 2.66684 3.5 2.66684ZM17.6665 3.5C17.6665 3.27903 17.5787 3.0671 17.4225 2.91083C17.2662 2.75461 17.0543 2.66684 16.8333 2.66684C16.6124 2.66684 16.4005 2.75461 16.2442 2.91083L14.9942 4.16083C14.9146 4.2377 14.8511 4.32966 14.8074 4.43133C14.7638 4.533 14.7408 4.64235 14.7398 4.753C14.7388 4.86365 14.7599 4.97338 14.8018 5.07579C14.8437 5.17821 14.9056 5.27125 14.9838 5.34949C15.0621 5.42774 15.1551 5.48962 15.2576 5.53152C15.36 5.57342 15.4697 5.5945 15.5803 5.59354C15.691 5.59258 15.8003 5.56959 15.902 5.52592C16.0037 5.48224 16.0956 5.41876 16.1725 5.33916L17.4225 4.08916C17.5787 3.93289 17.6665 3.72097 17.6665 3.5ZM1.24408 9.57741C1.0878 9.73369 1 9.94565 1 10.1667C1 10.3877 1.0878 10.5997 1.24408 10.7559C1.40036 10.9122 1.61232 11 1.83334 11H2.66667C2.88768 11 3.09964 10.9122 3.25593 10.7559C3.41221 10.5997 3.5 10.3877 3.5 10.1667C3.5 9.94565 3.41221 9.73369 3.25593 9.57741C3.09964 9.42113 2.88768 9.33333 2.66667 9.33333H1.83334C1.61232 9.33333 1.40036 9.42113 1.24408 9.57741ZM17.0774 9.57741C16.9211 9.73369 16.8333 9.94565 16.8333 10.1667C16.8333 10.3877 16.9211 10.5997 17.0774 10.7559C17.2337 10.9122 17.4457 11 17.6667 11H18.5C18.721 11 18.933 10.9122 19.0893 10.7559C19.2455 10.5997 19.3333 10.3877 19.3333 10.1667C19.3333 9.94565 19.2455 9.73369 19.0893 9.57741C18.933 9.42113 18.721 9.33333 18.5 9.33333H17.6667C17.4457 9.33333 17.2337 9.42113 17.0774 9.57741ZM5.58316 15.5834C5.58316 15.3624 5.49539 15.1505 5.33917 14.9942C5.1829 14.838 4.97097 14.7502 4.75 14.7502C4.52903 14.7502 4.31711 14.838 4.16084 14.9942L2.91084 16.2442C2.75904 16.4014 2.67504 16.6119 2.67694 16.8304C2.67884 17.0489 2.76648 17.2579 2.92099 17.4124C3.07549 17.5669 3.2845 17.6545 3.503 17.6564C3.7215 17.6583 3.932 17.5743 4.08917 17.4225L5.33917 16.1725C5.49539 16.0163 5.58316 15.8043 5.58316 15.5834ZM15.5833 14.7502C15.3624 14.7502 15.1505 14.838 14.9942 14.9942C14.838 15.1505 14.7502 15.3624 14.7502 15.5834C14.7502 15.8043 14.838 16.0163 14.9942 16.1725L16.2442 17.4225C16.4013 17.5743 16.6118 17.6583 16.8303 17.6564C17.0488 17.6545 17.2579 17.5669 17.4124 17.4124C17.5669 17.2579 17.6545 17.0489 17.6564 16.8304C17.6583 16.6119 17.5743 16.4014 17.4225 16.2442L16.1725 14.9942C16.0162 14.838 15.8043 14.7502 15.5833 14.7502ZM10.7559 17.0774C10.5997 16.9212 10.3877 16.8334 10.1667 16.8334C9.94566 16.8334 9.73369 16.9212 9.57741 17.0774C9.42113 17.2337 9.33334 17.4457 9.33334 17.6667V18.5C9.33334 18.721 9.42113 18.933 9.57741 19.0893C9.73369 19.2456 9.94566 19.3334 10.1667 19.3334C10.3877 19.3334 10.5997 19.2456 10.7559 19.0893C10.9122 18.933 11 18.721 11 18.5V17.6667C11 17.4457 10.9122 17.2337 10.7559 17.0774ZM7.22039 7.22039C8.00179 6.43899 9.0616 6 10.1667 6C11.2717 6 12.3316 6.43899 13.113 7.22039C13.8944 8.00179 14.3333 9.0616 14.3333 10.1667C14.3333 11.2718 13.8944 12.3316 13.113 13.113C12.3316 13.8944 11.2717 14.3334 10.1667 14.3334C9.0616 14.3334 8.00179 13.8944 7.22039 13.113C6.43899 12.3316 6 11.2718 6 10.1667C6 9.0616 6.43899 8.00179 7.22039 7.22039Z"
          fill="#828FA3"/>
</svg>
